<svg width="223" height="225" viewBox="0 0 223 225" fill="none" xmlns="http://www.w3.org/2000/svg">
<g opacity="0.3">
<path d="M219.784 219.151H211.695V0.786743H201.503V219.151H193.414C192.823 219.163 192.259 219.405 191.844 219.826C191.429 220.247 191.194 220.814 191.19 221.405V224.643H222.097V221.405C222.095 221.104 222.034 220.807 221.916 220.531C221.798 220.254 221.627 220.004 221.412 219.794C221.197 219.585 220.942 219.42 220.663 219.31C220.383 219.199 220.085 219.145 219.784 219.151Z" fill="white"/>
<path d="M28.6407 219.151H20.552V0.786743H10.3591V219.151H2.27037C1.67133 219.151 1.09659 219.388 0.671605 219.81C0.246622 220.233 0.0058942 220.806 0.00195312 221.405V224.643H30.9091V221.405C30.9052 220.806 30.6644 220.233 30.2394 219.81C29.8144 219.388 29.2397 219.151 28.6407 219.151Z" fill="white"/>
</g>
</svg>
