<svg width="75" height="104" viewBox="0 0 75 104" fill="none" xmlns="http://www.w3.org/2000/svg">
<path d="M47.2151 10.7131C46.9614 12.5488 51.9459 13.6979 56.0052 14.4441C55.6769 17.787 53.4532 21.1597 50.3939 24.3087C46.5286 22.1298 41.0217 19.2645 39.9472 19.9659C38.8727 20.6673 44.4244 24.3684 48.0061 26.5174C45.4834 28.7201 42.8105 30.7447 40.0069 32.5764C38.2907 30.9647 36.2611 29.5917 35.0522 30.308C33.8434 31.0244 34.1419 33.6062 34.7537 35.8298C30.5602 38.2773 27.4112 39.7697 27.4112 39.7697C26.1905 35.8626 25.2529 31.8726 24.6056 27.8307C24.8145 27.4128 25.0235 26.9949 25.2175 26.5472C25.904 24.9802 25.2175 24.3236 24.128 24.0998C23.8052 21.2447 23.7802 18.3638 24.0534 15.5036C28.8141 14.5187 34.5896 12.6681 32.4256 9.81769C31.1124 8.10146 28.7245 7.90745 26.2472 8.32532C26.5801 7.75497 26.9701 7.21993 27.4112 6.72846C36.067 -2.80783 42.0963 6.72846 42.0963 6.72846C47.1256 2.53488 54.1845 3.66912 55.7067 10.2057C52.9458 9.51923 47.5434 8.44472 47.2151 10.7131Z" fill="#80BCFF"/>
<path opacity="0.3" d="M47.2151 10.7131C46.9614 12.5488 51.9459 13.6979 56.0052 14.4441C55.6769 17.787 53.4532 21.1597 50.3939 24.3087C46.5286 22.1298 41.0217 19.2645 39.9472 19.9659C38.8727 20.6673 44.4244 24.3684 48.0061 26.5174C45.4834 28.7201 42.8105 30.7447 40.0069 32.5764C38.2907 30.9647 36.2611 29.5917 35.0522 30.308C33.8434 31.0244 34.1419 33.6062 34.7537 35.8298C30.5602 38.2773 27.4112 39.7697 27.4112 39.7697C26.1905 35.8626 25.2529 31.8726 24.6056 27.8307C24.8145 27.4128 25.0235 26.9949 25.2175 26.5472C25.904 24.9802 25.2175 24.3236 24.128 24.0998C23.8052 21.2447 23.7802 18.3638 24.0534 15.5036C28.8141 14.5187 34.5896 12.6681 32.4256 9.81769C31.1124 8.10146 28.7245 7.90745 26.2472 8.32532C26.5801 7.75497 26.9701 7.21993 27.4112 6.72846C36.067 -2.80783 42.0963 6.72846 42.0963 6.72846C47.1256 2.53488 54.1845 3.66912 55.7067 10.2057C52.9458 9.51923 47.5434 8.44472 47.2151 10.7131Z" fill="white"/>
<path d="M36.4255 80.7504L37.6791 80.6459C37.6791 80.0042 32.5603 16.1902 46.8721 10.1759C47.5549 9.85676 48.3024 9.70009 49.0558 9.71822C49.8093 9.73634 50.5483 9.92873 51.215 10.2803C56.3935 12.9815 58.8709 24.1445 58.8858 24.2639L60.1095 23.9953C60.0051 23.5177 57.483 12.1458 51.797 9.17597C50.9691 8.73581 50.0506 8.4933 49.1133 8.4674C48.176 8.44151 47.2455 8.63294 46.3946 9.02673C31.2469 15.3843 36.2017 78.079 36.4255 80.7504Z" fill="#80BCFF"/>
<path d="M34.6193 79.3625C34.873 76.4971 40.7231 8.98197 29.784 1.75886C27.1724 0.042626 24.8293 -0.330485 22.8444 0.669408C17.6808 3.28107 17.0092 14.3247 16.9794 14.7873L18.233 14.8619C18.233 14.7575 18.8896 4.07203 23.4115 1.78869C24.9039 1.01265 26.8888 1.34101 29.1124 2.80354C39.4098 9.56401 33.4403 78.4969 33.3806 79.1983L34.6193 79.3625Z" fill="#80BCFF"/>
<path d="M32.9777 84.8244C33.0673 82.6306 34.8581 30.9496 24.904 26.4277C23.9705 25.9876 22.9512 25.7594 21.9192 25.7594C20.8872 25.7594 19.8679 25.9876 18.9345 26.4277C12.0994 29.4125 7.87595 42.1723 7.71179 42.7095L8.89078 43.0976C8.89078 42.9633 13.1142 30.3526 19.427 27.5768C20.1951 27.2161 21.0333 27.0291 21.8819 27.0291C22.7305 27.0291 23.5687 27.2161 24.3368 27.5768C31.9629 31.0391 32.2166 70.0499 31.6644 84.7946L32.9777 84.8244Z" fill="#80BCFF"/>
<path d="M35.5153 82.4666L36.754 82.3174C35.0079 66.931 31.6501 25.9503 37.1271 21.0553C37.3927 20.7351 37.7461 20.4996 38.1438 20.3776C38.5415 20.2557 38.9662 20.2526 39.3657 20.3688C43.0369 21.7716 45.3352 35.1135 45.8277 40.1278L47.0663 39.9935C46.8574 38.0684 44.8576 21.1299 39.8134 19.2047C39.2001 18.9981 38.5398 18.9757 37.9139 19.1401C37.288 19.3045 36.7239 19.6487 36.2914 20.13C29.2175 26.4428 35.2467 80.1683 35.5153 82.4666Z" fill="#80BCFF"/>
<path d="M56.3782 53.3054H11.4428L15.2036 103.643H52.6324L56.3782 53.3054Z" fill="#80BCFF"/>
<path opacity="0.2" d="M42.7379 53.3054L41.4843 103.643H15.2036L11.4428 53.3054H42.7379Z" fill="white"/>
<path d="M50.2595 34.8298C50.7371 36.0535 54.2292 35.0835 56.9603 34.1134C57.8108 36.7213 57.7845 39.5359 56.8856 42.1275C53.7516 42.1275 49.4238 42.2171 48.991 43.008C48.5582 43.799 53.289 44.1721 56.1991 44.2914C55.4019 46.5097 54.4494 48.669 53.3487 50.7534C51.7369 50.3505 49.9909 50.1714 49.5133 51.0669C49.0358 51.9623 50.0804 53.4099 51.2295 54.5739C49.4835 57.5587 48.0508 59.5137 48.0508 59.5137C45.9571 57.5298 44.0118 55.3949 42.2305 53.1263C42.2305 52.798 42.2305 52.4697 42.2305 52.1264C42.1111 50.9325 41.4694 50.7385 40.7381 50.9922C39.5675 49.3364 38.5674 47.5665 37.7534 45.7092C40.3501 43.4707 43.2752 40.3516 40.962 39.3367C40.2014 39.1223 39.3964 39.1217 38.6356 39.3349C37.8747 39.5482 37.1873 39.9671 36.649 40.5456C36.6577 40.0786 36.7127 39.6137 36.8132 39.1577C38.8876 30.3079 45.8719 34.1134 45.8719 34.1134C47.5434 29.8154 52.2742 28.1439 55.4679 31.6062C53.3935 32.1286 49.6924 33.3225 50.2595 34.8298Z" fill="#80BCFF"/>
<path opacity="0.3" d="M50.2595 34.8298C50.7371 36.0535 54.2292 35.0835 56.9603 34.1134C57.8108 36.7213 57.7845 39.5359 56.8856 42.1275C53.7516 42.1275 49.4238 42.2171 48.991 43.008C48.5582 43.799 53.289 44.1721 56.1991 44.2914C55.4019 46.5097 54.4494 48.669 53.3487 50.7534C51.7369 50.3505 49.9909 50.1714 49.5133 51.0669C49.0358 51.9623 50.0804 53.4099 51.2295 54.5739C49.4835 57.5587 48.0508 59.5137 48.0508 59.5137C45.9571 57.5298 44.0118 55.3949 42.2305 53.1263C42.2305 52.798 42.2305 52.4697 42.2305 52.1264C42.1111 50.9325 41.4694 50.7385 40.7381 50.9922C39.5675 49.3364 38.5674 47.5665 37.7534 45.7092C40.3501 43.4707 43.2752 40.3516 40.962 39.3367C40.2014 39.1223 39.3964 39.1217 38.6356 39.3349C37.8747 39.5482 37.1873 39.9671 36.649 40.5456C36.6577 40.0786 36.7127 39.6137 36.8132 39.1577C38.8876 30.3079 45.8719 34.1134 45.8719 34.1134C47.5434 29.8154 52.2742 28.1439 55.4679 31.6062C53.3935 32.1286 49.6924 33.3225 50.2595 34.8298Z" fill="white"/>
<path d="M16.89 40.7994C18.2929 40.9207 19.676 41.2113 21.009 41.665C21.3675 40.7087 21.5691 39.7008 21.6059 38.6802C21.8895 29.6215 15.4125 33.442 11.9801 30.7707C11.1992 30.0896 10.285 29.5786 9.29582 29.2703C8.30659 28.9619 7.26402 28.863 6.23446 28.9798C6.53441 29.4547 6.79398 29.9539 7.01048 30.4722C7.07845 30.6709 7.10372 30.8817 7.08462 31.0909C7.06553 31.3 7.0025 31.5028 6.89967 31.6859C6.79684 31.869 6.6565 32.0284 6.48786 32.1536C6.31923 32.2787 6.12608 32.3669 5.92103 32.4123C5.05858 32.5786 4.16565 32.4689 3.36907 32.0989C3.13779 31.9687 2.9181 31.8189 2.71243 31.6512C2.17339 32.5889 1.75711 33.592 1.47377 34.6359C1.13824 35.9041 0.943034 37.2053 0.891724 38.5161C1.39717 38.6312 1.89547 38.7758 2.3841 38.9489C2.582 39.0322 2.75817 39.1598 2.89897 39.3219C3.03978 39.484 3.14149 39.6763 3.19628 39.8839C3.25107 40.0915 3.25744 40.309 3.21495 40.5194C3.17247 40.7299 3.08224 40.9278 2.95121 41.0979C2.41282 41.6436 1.78101 42.0884 1.08574 42.4112C1.31886 43.8637 1.69889 45.2888 2.21996 46.6645H2.68259C3.02584 46.7391 3.33925 46.8137 3.66757 46.9182C3.85398 46.9604 4.03442 47.0256 4.2048 47.1122C4.42393 47.2117 4.61573 47.3628 4.76385 47.5525C4.91197 47.7422 5.01203 47.9649 5.05547 48.2016C5.09235 48.4486 5.0619 48.701 4.96734 48.9321C4.87279 49.1633 4.71761 49.3646 4.51819 49.5149C4.30555 49.6715 4.08103 49.8112 3.84665 49.9328C4.70971 51.4338 5.9494 52.6838 7.44328 53.5592C8.75211 52.9569 10.0275 52.2844 11.2638 51.5445C10.9802 51.1714 10.7116 50.8133 10.4579 50.4402C10.1587 50.0035 10.0263 49.4739 10.0848 48.9478C10.1156 48.6982 10.1963 48.4573 10.3219 48.2395C10.4475 48.0216 10.6155 47.8311 10.816 47.6793C11.2187 47.3675 11.7285 47.228 12.2338 47.2913C12.7398 47.3608 13.1994 47.6227 13.5172 48.0225C13.8157 48.4702 14.144 48.8881 14.4724 49.3209C16.2021 48.0407 17.753 46.535 19.0838 44.8438H18.9346C18.0983 44.6248 17.2443 44.48 16.3826 44.411C15.8804 44.3403 15.4258 44.0759 15.1162 43.6742C14.8065 43.2726 14.6665 42.7656 14.726 42.262C14.843 41.7943 15.1286 41.3863 15.528 41.1163C15.9274 40.8464 16.4125 40.7335 16.89 40.7994Z" fill="#80BCFF"/>
<path opacity="0.5" d="M16.89 40.7994C18.2929 40.9207 19.676 41.2113 21.009 41.665C21.3675 40.7087 21.5691 39.7008 21.6059 38.6802C21.8895 29.6215 15.4125 33.442 11.9801 30.7707C11.1992 30.0896 10.285 29.5786 9.29582 29.2703C8.30659 28.9619 7.26402 28.863 6.23446 28.9798C6.53441 29.4547 6.79398 29.9539 7.01048 30.4722C7.07845 30.6709 7.10372 30.8817 7.08462 31.0909C7.06553 31.3 7.0025 31.5028 6.89967 31.6859C6.79684 31.869 6.6565 32.0284 6.48786 32.1536C6.31923 32.2787 6.12608 32.3669 5.92103 32.4123C5.05858 32.5786 4.16565 32.4689 3.36907 32.0989C3.13779 31.9687 2.9181 31.8189 2.71243 31.6512C2.17339 32.5889 1.75711 33.592 1.47377 34.6359C1.13824 35.9041 0.943034 37.2053 0.891724 38.5161C1.39717 38.6312 1.89547 38.7758 2.3841 38.9489C2.582 39.0322 2.75817 39.1598 2.89897 39.3219C3.03978 39.484 3.14149 39.6763 3.19628 39.8839C3.25107 40.0915 3.25744 40.309 3.21495 40.5194C3.17247 40.7299 3.08224 40.9278 2.95121 41.0979C2.41282 41.6436 1.78101 42.0884 1.08574 42.4112C1.31886 43.8637 1.69889 45.2888 2.21996 46.6645H2.68259C3.02584 46.7391 3.33925 46.8137 3.66757 46.9182C3.85398 46.9604 4.03442 47.0256 4.2048 47.1122C4.42393 47.2117 4.61573 47.3628 4.76385 47.5525C4.91197 47.7422 5.01203 47.9649 5.05547 48.2016C5.09235 48.4486 5.0619 48.701 4.96734 48.9321C4.87279 49.1633 4.71761 49.3646 4.51819 49.5149C4.30555 49.6715 4.08103 49.8112 3.84665 49.9328C4.70971 51.4338 5.9494 52.6838 7.44328 53.5592C8.75211 52.9569 10.0275 52.2844 11.2638 51.5445C10.9802 51.1714 10.7116 50.8133 10.4579 50.4402C10.1587 50.0035 10.0263 49.4739 10.0848 48.9478C10.1156 48.6982 10.1963 48.4573 10.3219 48.2395C10.4475 48.0216 10.6155 47.8311 10.816 47.6793C11.2187 47.3675 11.7285 47.228 12.2338 47.2913C12.7398 47.3608 13.1994 47.6227 13.5172 48.0225C13.8157 48.4702 14.144 48.8881 14.4724 49.3209C16.2021 48.0407 17.753 46.535 19.0838 44.8438H18.9346C18.0983 44.6248 17.2443 44.48 16.3826 44.411C15.8804 44.3403 15.4258 44.0759 15.1162 43.6742C14.8065 43.2726 14.6665 42.7656 14.726 42.262C14.843 41.7943 15.1286 41.3863 15.528 41.1163C15.9274 40.8464 16.4125 40.7335 16.89 40.7994Z" fill="white"/>
<path d="M14.3084 9.54898C13.5187 9.00269 12.6672 8.55185 11.7714 8.20585C11.9886 7.5451 12.3222 6.9285 12.7564 6.38515C16.5769 1.49015 18.308 6.38515 21.2779 6.38515C21.9866 6.3651 22.6916 6.49421 23.3472 6.76416C24.0028 7.03411 24.5943 7.43886 25.0834 7.95213C24.7086 8.08331 24.3444 8.24298 23.994 8.4297C23.8636 8.49684 23.7505 8.59307 23.6633 8.71098C23.5762 8.82888 23.5173 8.96527 23.4913 9.10957C23.4654 9.25388 23.473 9.40225 23.5136 9.54315C23.5541 9.68405 23.6266 9.81369 23.7254 9.92207C24.108 10.3917 24.631 10.7264 25.2178 10.8772C25.4015 10.8926 25.5862 10.8926 25.7699 10.8772C25.6336 11.615 25.4028 12.3323 25.0834 13.0113C24.7111 13.8284 24.2453 14.5996 23.6955 15.3095C23.3756 15.1424 23.0468 14.993 22.7105 14.8618C22.5702 14.8212 22.4225 14.8127 22.2784 14.8372C22.1343 14.8616 21.9976 14.9183 21.8785 15.0029C21.7594 15.0876 21.661 15.1981 21.5906 15.3261C21.5201 15.4542 21.4796 15.5964 21.4719 15.7423C21.5186 16.2594 21.655 16.7644 21.8748 17.2347C21.1141 17.8928 20.2891 18.4728 19.4124 18.9659L19.1288 18.7868L18.5169 18.4883C18.396 18.4346 18.2713 18.3897 18.1439 18.354C17.9845 18.3081 17.8162 18.3032 17.6544 18.3397C17.4927 18.3763 17.3428 18.4531 17.2186 18.563C17.0918 18.6773 16.9975 18.823 16.9451 18.9855C16.8926 19.1479 16.884 19.3214 16.9201 19.4882C16.9644 19.6624 17.0244 19.8322 17.0992 19.9956C15.9878 20.403 14.79 20.5161 13.622 20.3239C13.1965 19.436 12.8228 18.524 12.5027 17.5929L13.3981 17.3541C13.7325 17.2734 14.025 17.0713 14.2189 16.787C14.3136 16.6406 14.3783 16.4767 14.409 16.3051C14.4398 16.1334 14.4361 15.9573 14.398 15.7871C14.3195 15.4486 14.1115 15.1543 13.8186 14.9674C13.5256 14.7804 13.1711 14.7158 12.831 14.7872C12.4728 14.8917 12.1147 14.9663 11.7565 15.0409C11.3991 13.6171 11.2434 12.1503 11.2938 10.6832H11.3834C11.9046 10.9402 12.4037 11.2396 12.8758 11.5786C13.1713 11.7641 13.528 11.8258 13.8687 11.7504C14.2094 11.675 14.5068 11.4685 14.6965 11.1757C14.8226 10.9001 14.8529 10.5903 14.7825 10.2955C14.7122 10.0008 14.5453 9.73796 14.3084 9.54898Z" fill="#80BCFF"/>
<path opacity="0.3" d="M14.3084 9.54898C13.5187 9.00269 12.6672 8.55185 11.7714 8.20585C11.9886 7.5451 12.3222 6.9285 12.7564 6.38515C16.5769 1.49015 18.308 6.38515 21.2779 6.38515C21.9866 6.3651 22.6916 6.49421 23.3472 6.76416C24.0028 7.03411 24.5943 7.43886 25.0834 7.95213C24.7086 8.08331 24.3444 8.24298 23.994 8.4297C23.8636 8.49684 23.7505 8.59307 23.6633 8.71098C23.5762 8.82888 23.5173 8.96527 23.4913 9.10957C23.4654 9.25388 23.473 9.40225 23.5136 9.54315C23.5541 9.68405 23.6266 9.81369 23.7254 9.92207C24.108 10.3917 24.631 10.7264 25.2178 10.8772C25.4015 10.8926 25.5862 10.8926 25.7699 10.8772C25.6336 11.615 25.4028 12.3323 25.0834 13.0113C24.7111 13.8284 24.2453 14.5996 23.6955 15.3095C23.3756 15.1424 23.0468 14.993 22.7105 14.8618C22.5702 14.8212 22.4225 14.8127 22.2784 14.8372C22.1343 14.8616 21.9976 14.9183 21.8785 15.0029C21.7594 15.0876 21.661 15.1981 21.5906 15.3261C21.5201 15.4542 21.4796 15.5964 21.4719 15.7423C21.5186 16.2594 21.655 16.7644 21.8748 17.2347C21.1141 17.8928 20.2891 18.4728 19.4124 18.9659L19.1288 18.7868L18.5169 18.4883C18.396 18.4346 18.2713 18.3897 18.1439 18.354C17.9845 18.3081 17.8162 18.3032 17.6544 18.3397C17.4927 18.3763 17.3428 18.4531 17.2186 18.563C17.0918 18.6773 16.9975 18.823 16.9451 18.9855C16.8926 19.1479 16.884 19.3214 16.9201 19.4882C16.9644 19.6624 17.0244 19.8322 17.0992 19.9956C15.9878 20.403 14.79 20.5161 13.622 20.3239C13.1965 19.436 12.8228 18.524 12.5027 17.5929L13.3981 17.3541C13.7325 17.2734 14.025 17.0713 14.2189 16.787C14.3136 16.6406 14.3783 16.4767 14.409 16.3051C14.4398 16.1334 14.4361 15.9573 14.398 15.7871C14.3195 15.4486 14.1115 15.1543 13.8186 14.9674C13.5256 14.7804 13.1711 14.7158 12.831 14.7872C12.4728 14.8917 12.1147 14.9663 11.7565 15.0409C11.3991 13.6171 11.2434 12.1503 11.2938 10.6832H11.3834C11.9046 10.9402 12.4037 11.2396 12.8758 11.5786C13.1713 11.7641 13.528 11.8258 13.8687 11.7504C14.2094 11.675 14.5068 11.4685 14.6965 11.1757C14.8226 10.9001 14.8529 10.5903 14.7825 10.2955C14.7122 10.0008 14.5453 9.73796 14.3084 9.54898Z" fill="white"/>
<path d="M50.9161 18.6225C51.1847 20.4581 46.2002 21.6819 42.126 22.3534C42.4544 25.6964 44.678 29.0692 47.7523 32.2181C51.6026 30.0392 57.1244 27.1738 58.1989 27.8752C59.2734 28.5767 53.7218 32.3524 50.1252 34.4268C52.6291 36.6495 55.2818 38.6988 58.0646 40.5605C59.7958 38.9487 61.8254 37.5757 63.0193 38.2921C64.2132 39.0084 63.9446 41.5902 63.3178 43.8288C67.5263 46.2763 70.6603 47.7537 70.6603 47.7537C71.8807 43.8465 72.8183 39.8565 73.466 35.8147C73.257 35.3968 73.0481 34.9641 72.8541 34.5163C72.1825 32.9493 72.8541 32.2927 73.9584 32.0688C74.2564 29.2162 74.2564 26.3403 73.9584 23.4877C69.2127 22.4878 63.5118 20.6372 65.6011 17.7868C66.8995 16.0705 69.2873 15.8765 71.7796 16.2944C71.447 15.7201 71.0515 15.1845 70.6006 14.6976C61.9597 5.16129 55.9156 14.6976 55.9156 14.6976C50.9012 10.504 43.8423 11.7128 42.3051 18.1897C45.2003 17.4286 50.5878 16.3541 50.9161 18.6225Z" fill="#80BCFF"/>
<path opacity="0.5" d="M50.9161 18.6225C51.1847 20.4581 46.2002 21.6819 42.126 22.3534C42.4544 25.6964 44.678 29.0692 47.7523 32.2181C51.6026 30.0392 57.1244 27.1738 58.1989 27.8752C59.2734 28.5767 53.7218 32.3524 50.1252 34.4268C52.6291 36.6495 55.2818 38.6988 58.0646 40.5605C59.7958 38.9487 61.8254 37.5757 63.0193 38.2921C64.2132 39.0084 63.9446 41.5902 63.3178 43.8288C67.5263 46.2763 70.6603 47.7537 70.6603 47.7537C71.8807 43.8465 72.8183 39.8565 73.466 35.8147C73.257 35.3968 73.0481 34.9641 72.8541 34.5163C72.1825 32.9493 72.8541 32.2927 73.9584 32.0688C74.2564 29.2162 74.2564 26.3403 73.9584 23.4877C69.2127 22.4878 63.5118 20.6372 65.6011 17.7868C66.8995 16.0705 69.2873 15.8765 71.7796 16.2944C71.447 15.7201 71.0515 15.1845 70.6006 14.6976C61.9597 5.16129 55.9156 14.6976 55.9156 14.6976C50.9012 10.504 43.8423 11.7128 42.3051 18.1897C45.2003 17.4286 50.5878 16.3541 50.9161 18.6225Z" fill="white"/>
</svg>
